<svg xmlns="http://www.w3.org/2000/svg" viewBox="0 0 1029 1029">
  <title>iOS Icon Template</title>
  <defs>
    <style type="text/css">
      svg { background-color: dodgerblue; }
      path { fill: none; stroke: white; }
    </style>
  </defs>
  <path stroke-width="4" d="M1026.085 706.085c0 128 0 192-64.001 256-63.999 64-127.999 64-255.999 64h-384c-128 0-192 0-256-64s-64-128-64-256v-384c0-128 0-192 64-256s128-64 256-64h384c127.999 0 191.999 0 255.999 64 64.001 64 64.001 128 64.001 256v384zm0-704l-1024 1024m1024 0l-1024-1024m1024 320h-1024m1024 384h-1024m704 320v-1024m-384 1024v-1024m704 64h-1024m1024 896h-1024m960 64v-1024m-896 1024v-1024"/>
  <path stroke-width="6" d="M1026.085 785.585h-1024m1024-543h-1024m783.5 783.5v-1024m-543 1024v-1024m783.5 512h-1024m512 512v-1024"/>
  <path stroke-width="4" d="M785.585 514.085c0 149.945-121.555 271.5-271.5 271.5s-271.5-121.555-271.5-271.5 121.555-271.5 271.5-271.5 271.5 121.555 271.5 271.5zm-463.5 0c0-106.039 85.96-192 192-192 106.039 0 192 85.96 192 192 0 106.039-85.961 192-192 192-106.04 0-192-85.962-192-192zm640 0c0 247.424-200.576 448-448 448s-448-200.576-448-448c0-247.423 200.576-448 448-448s448 200.577 448 448zm-64 0c0 212.077-171.923 384-384 384s-384-171.923-384-384 171.923-384 384-384 384 171.923 384 384z"/>
</svg>
